<svg width="44" height="13" viewBox="0 0 44 13" fill="none" xmlns="http://www.w3.org/2000/svg">
<path d="M2.728 9.888H6.312V12H-0.00799996V0.768H2.728V9.888ZM12.929 12.112C11.873 12.112 10.9023 11.8667 10.017 11.376C9.14233 10.8853 8.44367 10.2027 7.921 9.328C7.409 8.44267 7.153 7.45067 7.153 6.352C7.153 5.25333 7.409 4.26667 7.921 3.392C8.44367 2.51733 9.14233 1.83467 10.017 1.344C10.9023 0.853333 11.873 0.608 12.929 0.608C13.985 0.608 14.9503 0.853333 15.825 1.344C16.7103 1.83467 17.4037 2.51733 17.905 3.392C18.417 4.26667 18.673 5.25333 18.673 6.352C18.673 7.45067 18.417 8.44267 17.905 9.328C17.393 10.2027 16.6997 10.8853 15.825 11.376C14.9503 11.8667 13.985 12.112 12.929 12.112ZM12.929 9.616C13.825 9.616 14.5397 9.31733 15.073 8.72C15.617 8.12267 15.889 7.33333 15.889 6.352C15.889 5.36 15.617 4.57067 15.073 3.984C14.5397 3.38667 13.825 3.088 12.929 3.088C12.0223 3.088 11.297 3.38133 10.753 3.968C10.2197 4.55467 9.953 5.34933 9.953 6.352C9.953 7.344 10.2197 8.13867 10.753 8.736C11.297 9.32267 12.0223 9.616 12.929 9.616ZM27.6511 4.32C27.4485 3.94667 27.1551 3.664 26.7711 3.472C26.3978 3.26933 25.9551 3.168 25.4431 3.168C24.5578 3.168 23.8485 3.46133 23.3151 4.048C22.7818 4.624 22.5151 5.39733 22.5151 6.368C22.5151 7.40267 22.7925 8.21333 23.3471 8.8C23.9125 9.376 24.6858 9.664 25.6671 9.664C26.3391 9.664 26.9045 9.49333 27.3631 9.152C27.8325 8.81067 28.1738 8.32 28.3871 7.68H24.9151V5.664H30.8671V8.208C30.6645 8.89067 30.3178 9.52533 29.8271 10.112C29.3471 10.6987 28.7338 11.1733 27.9871 11.536C27.2405 11.8987 26.3978 12.08 25.4591 12.08C24.3498 12.08 23.3578 11.84 22.4831 11.36C21.6191 10.8693 20.9418 10.192 20.4511 9.328C19.9711 8.464 19.7311 7.47733 19.7311 6.368C19.7311 5.25867 19.9711 4.272 20.4511 3.408C20.9418 2.53333 21.6191 1.856 22.4831 1.376C23.3471 0.885333 24.3338 0.639999 25.4431 0.639999C26.7871 0.639999 27.9178 0.965333 28.8351 1.616C29.7631 2.26667 30.3765 3.168 30.6751 4.32H27.6511ZM37.6946 12.112C36.6386 12.112 35.668 11.8667 34.7826 11.376C33.908 10.8853 33.2093 10.2027 32.6866 9.328C32.1746 8.44267 31.9186 7.45067 31.9186 6.352C31.9186 5.25333 32.1746 4.26667 32.6866 3.392C33.2093 2.51733 33.908 1.83467 34.7826 1.344C35.668 0.853333 36.6386 0.608 37.6946 0.608C38.7506 0.608 39.716 0.853333 40.5906 1.344C41.476 1.83467 42.1693 2.51733 42.6706 3.392C43.1826 4.26667 43.4386 5.25333 43.4386 6.352C43.4386 7.45067 43.1826 8.44267 42.6706 9.328C42.1586 10.2027 41.4653 10.8853 40.5906 11.376C39.716 11.8667 38.7506 12.112 37.6946 12.112ZM37.6946 9.616C38.5906 9.616 39.3053 9.31733 39.8386 8.72C40.3826 8.12267 40.6546 7.33333 40.6546 6.352C40.6546 5.36 40.3826 4.57067 39.8386 3.984C39.3053 3.38667 38.5906 3.088 37.6946 3.088C36.788 3.088 36.0626 3.38133 35.5186 3.968C34.9853 4.55467 34.7186 5.34933 34.7186 6.352C34.7186 7.344 34.9853 8.13867 35.5186 8.736C36.0626 9.32267 36.788 9.616 37.6946 9.616Z" fill="white"/>
</svg>
