<?xml version="1.0" encoding="UTF-8" standalone="no"?>
<!DOCTYPE svg PUBLIC "-//W3C//DTD SVG 1.1//EN"
 "http://www.w3.org/Graphics/SVG/1.1/DTD/svg11.dtd">
<!-- Generated by graphviz version 12.1.1 (20240910.0053)
 -->
<!-- Title: INFRA Pages: 1 -->
<svg width="743pt" height="296pt"
 viewBox="0.00 0.00 742.88 296.00" xmlns="http://www.w3.org/2000/svg" xmlns:xlink="http://www.w3.org/1999/xlink">
<g id="graph0" class="graph" transform="scale(1 1) rotate(0) translate(4 292)">
<title>INFRA</title>
<polygon fill="white" stroke="none" points="-4,4 -4,-292 738.88,-292 738.88,4 -4,4"/>
<!-- PostGISAdapter -->
<g id="node1" class="node">
<title>PostGISAdapter</title>
<path fill="#b7e0ff" stroke="black" stroke-width="2" d="M165.06,-180C165.06,-180 12,-180 12,-180 6,-180 0,-174 0,-168 0,-168 0,-120 0,-120 0,-114 6,-108 12,-108 12,-108 165.06,-108 165.06,-108 171.06,-108 177.06,-114 177.06,-120 177.06,-120 177.06,-168 177.06,-168 177.06,-174 171.06,-180 165.06,-180"/>
<text text-anchor="middle" x="88.53" y="-148.2" font-family="Arial" font-size="14.00">PostGISAdapter</text>
<text text-anchor="middle" x="88.53" y="-131.4" font-family="Arial" font-size="14.00">(AWS::Lambda::Function)</text>
</g>
<!-- DatabaseWrapper -->
<g id="node2" class="node">
<title>DatabaseWrapper</title>
<path fill="#ffcfb3" stroke="black" stroke-width="2" d="M175.88,-281.45C175.88,-285.07 136.73,-288 88.53,-288 40.33,-288 1.18,-285.07 1.18,-281.45 1.18,-281.45 1.18,-222.55 1.18,-222.55 1.18,-218.93 40.33,-216 88.53,-216 136.73,-216 175.88,-218.93 175.88,-222.55 175.88,-222.55 175.88,-281.45 175.88,-281.45"/>
<path fill="none" stroke="black" stroke-width="2" d="M175.88,-281.45C175.88,-277.84 136.73,-274.91 88.53,-274.91 40.33,-274.91 1.18,-277.84 1.18,-281.45"/>
<text text-anchor="middle" x="88.53" y="-256.2" font-family="Arial" font-size="14.00">DatabaseWrapper</text>
<text text-anchor="middle" x="88.53" y="-239.4" font-family="Arial" font-size="14.00">(AWS::RDS::DBInstance)</text>
</g>
<!-- DatabaseWrapper&#45;&gt;PostGISAdapter -->
<g id="edge1" class="edge">
<title>DatabaseWrapper&#45;&gt;PostGISAdapter</title>
<path fill="none" stroke="black" d="M88.53,-215.7C88.53,-207.93 88.53,-199.57 88.53,-191.43"/>
<polygon fill="black" stroke="black" points="92.03,-191.66 88.53,-181.66 85.03,-191.66 92.03,-191.66"/>
</g>
<!-- SOCKSConnection -->
<g id="node3" class="node">
<title>SOCKSConnection</title>
<ellipse fill="#e6e6e6" stroke="black" stroke-width="2" cx="343.53" cy="-36" rx="126.09" ry="36"/>
<text text-anchor="middle" x="343.53" y="-40.2" font-family="Arial" font-size="14.00">SOCKSConnection</text>
<text text-anchor="middle" x="343.53" y="-23.4" font-family="Arial" font-size="14.00">(AWS::EC2::NetworkInterface)</text>
</g>
<!-- SOCKSHTTPSConnection -->
<g id="node4" class="node">
<title>SOCKSHTTPSConnection</title>
<ellipse fill="#e6e6e6" stroke="black" stroke-width="2" cx="420.53" cy="-144" rx="126.09" ry="36"/>
<text text-anchor="middle" x="420.53" y="-148.2" font-family="Arial" font-size="14.00">SOCKSHTTPSConnection</text>
<text text-anchor="middle" x="420.53" y="-131.4" font-family="Arial" font-size="14.00">(AWS::EC2::NetworkInterface)</text>
</g>
<!-- SOCKSHTTPSConnection&#45;&gt;SOCKSConnection -->
<g id="edge2" class="edge">
<title>SOCKSHTTPSConnection&#45;&gt;SOCKSConnection</title>
<path fill="none" stroke="black" d="M395.32,-108.29C388.87,-99.42 381.86,-89.76 375.13,-80.5"/>
<polygon fill="black" stroke="black" points="378.14,-78.68 369.43,-72.65 372.47,-82.8 378.14,-78.68"/>
</g>
<!-- SOCKSProxyManager -->
<g id="node5" class="node">
<title>SOCKSProxyManager</title>
<ellipse fill="#e6e6e6" stroke="black" stroke-width="2" cx="328.53" cy="-252" rx="104.63" ry="36"/>
<text text-anchor="middle" x="328.53" y="-256.2" font-family="Arial" font-size="14.00">SOCKSProxyManager</text>
<text text-anchor="middle" x="328.53" y="-239.4" font-family="Arial" font-size="14.00">(AWS::EC2::NetworkAcl)</text>
</g>
<!-- SOCKSProxyManager&#45;&gt;SOCKSConnection -->
<g id="edge3" class="edge">
<title>SOCKSProxyManager&#45;&gt;SOCKSConnection</title>
<path fill="none" stroke="black" d="M302.59,-216.64C295.65,-205.53 289.1,-192.77 285.53,-180 276.93,-149.18 274.78,-138.14 285.53,-108 289.06,-98.09 294.64,-88.57 300.96,-79.89"/>
<polygon fill="black" stroke="black" points="303.72,-82.05 307.13,-72.02 298.21,-77.73 303.72,-82.05"/>
</g>
<!-- SOCKSProxyManager&#45;&gt;SOCKSHTTPSConnection -->
<g id="edge4" class="edge">
<title>SOCKSProxyManager&#45;&gt;SOCKSHTTPSConnection</title>
<path fill="none" stroke="black" d="M357.89,-217.17C366.03,-207.8 374.96,-197.5 383.48,-187.69"/>
<polygon fill="black" stroke="black" points="385.91,-190.23 389.82,-180.38 380.63,-185.64 385.91,-190.23"/>
</g>
<!-- PlatformDirs -->
<g id="node6" class="node">
<title>PlatformDirs</title>
<path fill="#fff5cd" stroke="black" stroke-width="2" d="M583.88,-281.45C583.88,-285.07 554.14,-288 517.53,-288 480.92,-288 451.18,-285.07 451.18,-281.45 451.18,-281.45 451.18,-222.55 451.18,-222.55 451.18,-218.93 480.92,-216 517.53,-216 554.14,-216 583.88,-218.93 583.88,-222.55 583.88,-222.55 583.88,-281.45 583.88,-281.45"/>
<path fill="none" stroke="black" stroke-width="2" d="M583.88,-281.45C583.88,-277.84 554.14,-274.91 517.53,-274.91 480.92,-274.91 451.18,-277.84 451.18,-281.45"/>
<text text-anchor="middle" x="517.53" y="-256.2" font-family="Arial" font-size="14.00">PlatformDirs</text>
<text text-anchor="middle" x="517.53" y="-239.4" font-family="Arial" font-size="14.00">(AWS::S3::Bucket)</text>
</g>
<!-- SafeFileCache -->
<g id="node7" class="node">
<title>SafeFileCache</title>
<path fill="#fff5cd" stroke="black" stroke-width="2" d="M734.88,-281.45C734.88,-285.07 705.14,-288 668.53,-288 631.92,-288 602.18,-285.07 602.18,-281.45 602.18,-281.45 602.18,-222.55 602.18,-222.55 602.18,-218.93 631.92,-216 668.53,-216 705.14,-216 734.88,-218.93 734.88,-222.55 734.88,-222.55 734.88,-281.45 734.88,-281.45"/>
<path fill="none" stroke="black" stroke-width="2" d="M734.88,-281.45C734.88,-277.84 705.14,-274.91 668.53,-274.91 631.92,-274.91 602.18,-277.84 602.18,-281.45"/>
<text text-anchor="middle" x="668.53" y="-256.2" font-family="Arial" font-size="14.00">SafeFileCache</text>
<text text-anchor="middle" x="668.53" y="-239.4" font-family="Arial" font-size="14.00">(AWS::S3::Bucket)</text>
</g>
</g>
</svg>
